<?xml version="1.0" encoding="utf-8"?>
<!-- Generator: Adobe Illustrator 15.0.0, SVG Export Plug-In . SVG Version: 6.00 Build 0)  -->
<!DOCTYPE svg PUBLIC "-//W3C//DTD SVG 1.1//EN" "http://www.w3.org/Graphics/SVG/1.1/DTD/svg11.dtd">
<svg version="1.1" id="图层_1" xmlns="http://www.w3.org/2000/svg" xmlns:xlink="http://www.w3.org/1999/xlink" x="0px" y="0px"
	 width="485.975px" height="371.981px" viewBox="0 0 485.975 371.981" enable-background="new 0 0 485.975 371.981"
	 xml:space="preserve">
<g>
	<g>
		<linearGradient id="SVGID_1_" gradientUnits="userSpaceOnUse" x1="70.772" y1="191.3105" x2="382.7241" y2="191.3105">
			<stop  offset="0.0121" style="stop-color:#E83828"/>
			<stop  offset="1" style="stop-color:#F8B62D"/>
		</linearGradient>
		<path fill="url(#SVGID_1_)" d="M360.429,171.794c0,0,11.425,1.414,12.674,8.996c0,0-0.097-8.674,9.621-12.531
			c0,0-9.398-0.39-13.566-8.895C369.158,159.365,368.954,166.219,360.429,171.794z M143.106,213.145
			c-2.3-14.438-2.075-27.908,0.021-40.159c0.307,0.349,0.774,0.527,1.405,0.527c0.236,0,0.472-0.05,0.709-0.15
			c7.715-2.8,20.752-6.979,39.113-12.534c-0.142,9.286,0.166,19.211,0.925,29.776c0.9,13.029,2.228,21.368,3.981,25.016
			c0.664,1.372,1.423,2.06,2.275,2.06c0.711,0,1.34-0.45,1.885-1.349c0.545-0.9,0.819-1.966,0.819-3.195
			c0-2.083-0.83-3.811-2.485-5.185c-0.807-1.893-1.54-5.703-2.203-11.432c-0.899-8.378-1.348-19.173-1.348-32.381v-4.402
			c9.845-2.935,17.728-5.136,23.646-6.604c-0.663,0.993-0.994,1.823-0.994,2.485c0,0.899,0.64,1.348,1.917,1.348
			c3.361,0,6.818-0.887,10.367-2.662c3.551-1.775,5.326-3.397,5.326-4.865c0-1.42-1.871-2.13-5.609-2.13
			c-4.261,0-15.74,2.794-34.44,8.38c0.284-1.657-0.189-2.581-1.42-2.77c-1.042-0.189-1.752,0.213-2.13,1.207
			c-0.142,0.427-0.26,1.326-0.355,2.7c-19.03,5.727-32.545,10.059-40.546,12.993c-0.106,0.035-0.185,0.088-0.278,0.132
			c3.049-15.28,9.027-28.56,16.635-39.294c18.861-26.61,52.342-46.598,91.057-47.508c55.967-1.312,93.377,30.954,111.673,69.741
			c2.813,0.543,3.801-0.133,7.098-0.853c-19.044-51.797-66.36-91.57-136.189-87.098c-28.932,1.851-57.539,14.263-78.389,30.879
			c-27.881,22.225-45.996,57.845-43.57,107.227C123.006,206.228,132.661,210.395,143.106,213.145z M370.15,190.043
			c-0.199,38.119-20.235,69.646-43.069,87.758c-24.544,18.18-69.002,30.558-104.204,19.134
			c-34.827-11.298-60.466-34.276-72.847-64.133c-11.354-2.106-20.67-3.287-32.821-5.924c8.076,22.623,17.887,40.336,32.821,55.013
			c31.482,30.939,94.118,47.12,145.689,27.715c17.328-6.519,37.1-20.969,49.091-34.047c20.184-22.015,33.458-50.582,33.257-88.684
			C375.069,184.894,370.445,186.855,370.15,190.043z M316.307,227.256c-41.369,3.87-91.69,2.867-137.773-3.956
			c-14.685-2.177-30.992-4.384-47.506-9.503c-10.265-3.182-36.176-10.92-35.632-22.17c0.376-7.756,13.24-8.441,12.67-15.835h-1.584
			c-11.296,2.865-34.429,9.011-35.632,19.002c-1.137,9.458,10.614,14.962,18.213,18.212c26.324,11.253,60.109,15.634,91.056,18.211
			C226.701,235.096,282.242,237.701,316.307,227.256z M212.417,194.661c1.089-0.258,5.704-0.648,13.847-1.167
			c4.923-0.256,7.385-1.356,7.385-3.296c0-3.105-3.078-5.337-9.231-6.695c-3.598-0.777-7.574-1.164-11.929-1.164
			c-5.444,0-8.451,0.067-9.018,0.199c-1.09,0.198-1.634,0.957-1.634,2.277c0,1.519,0.544,2.278,1.634,2.278
			c11.171,0,19.076,0.613,23.716,1.835c-17.516,0.452-26.273,4.925-26.273,13.422c0,3.736,2.532,5.602,7.599,5.602
			c2.887,0,7.195-0.809,12.924-2.426c6.91-1.875,10.367-3.881,10.367-6.015c0-1.421-0.522-2.135-1.563-2.135
			c-0.236,0-0.473,0.065-0.71,0.195c-2.981,1.683-6.486,3.089-10.509,4.219c-4.023,1.134-7.622,1.698-10.793,1.698
			c-2.131,0-3.504-0.388-4.119-1.162C204.535,198.38,207.304,195.824,212.417,194.661z M248.953,189.981
			c1.819-1.468,4.501-2.936,8.045-4.403c0.813-0.366,1.221-1.173,1.221-2.422c0-0.806-0.192-1.43-0.574-1.871
			c-0.385-0.44-0.838-0.587-1.365-0.44c-6.705,2.201-11.589,6.127-14.652,11.776c-1.341-5.063-2.514-7.594-3.52-7.594
			c-1.054,0-1.579,0.808-1.579,2.42c0,0.66,0.143,1.249,0.431,1.761c0.861,1.616,1.724,4.699,2.585,9.246
			c-0.288,1.394-0.431,3.083-0.431,5.063c0,4.331,0.789,6.495,2.369,6.495c1.389,0,2.084-1.504,2.084-4.513
			c0-1.541-0.215-3.743-0.646-6.604C243.971,195.301,245.983,192.33,248.953,189.981z M326.209,185.119
			c-2.771,3.61-4.153,7.078-4.153,10.404c0,3.328,1.581,6.466,4.746,9.417c2.967,2.824,5.785,4.236,8.454,4.236
			c2.719,0,5.501-1.633,8.344-4.896c2.843-3.263,4.266-6.591,4.266-9.982c0-2.76-1.78-5.931-5.342-9.51
			c-3.36-3.39-6.105-5.083-8.231-5.083C331.672,179.705,328.978,181.508,326.209,185.119z M340.523,188.32
			c2.472,2.228,3.708,4.253,3.708,6.073c0,2.134-1.038,4.364-3.114,6.686c-2.077,2.322-4.005,3.482-5.785,3.482
			c-1.731,0-3.733-1.002-6.008-3.012c-2.422-2.134-3.634-4.144-3.634-6.026c0.049-1.63,0.965-3.703,2.744-6.214
			c2.026-2.887,4.079-4.332,6.155-4.332C336.073,184.977,338.051,186.092,340.523,188.32z M266.03,185.119
			c-2.771,3.61-4.153,7.078-4.153,10.404c0,3.328,1.581,6.466,4.746,9.417c2.966,2.824,5.785,4.236,8.454,4.236
			c2.719,0,5.501-1.633,8.344-4.896c2.843-3.263,4.266-6.591,4.266-9.982c0-2.76-1.78-5.931-5.342-9.51
			c-3.36-3.39-6.105-5.083-8.231-5.083C271.493,179.705,268.798,181.508,266.03,185.119z M280.343,188.32
			c2.472,2.228,3.708,4.253,3.708,6.073c0,2.134-1.039,4.364-3.114,6.686c-2.078,2.322-4.006,3.482-5.785,3.482
			c-1.731,0-3.734-1.002-6.009-3.012c-2.422-2.134-3.633-4.144-3.633-6.026c0.049-1.63,0.965-3.703,2.744-6.214
			c2.026-2.887,4.078-4.332,6.155-4.332C275.893,184.977,277.871,186.092,280.343,188.32z M298.008,193.489
			c0.786-0.685,3.721-2.837,8.803-6.455c3.19-2.306,4.786-3.991,4.786-5.052c0-1.185-0.434-1.778-1.3-1.778
			c-0.708,0-1.653,0.406-2.836,1.216c-2.363,1.436-4.707,2.87-7.031,4.304c-3.033,2.058-5.339,4.118-6.914,6.175
			c-2.088,2.747-3.132,5.739-3.132,8.981c0,0.625,0.039,1.218,0.118,1.778c0.473,4.428,7.347,6.643,20.623,6.643
			c5.119,0,8.272-0.217,9.453-0.654c0.984-0.375,1.478-1.154,1.478-2.34c0-1.498-0.474-2.244-1.418-2.244
			c-1.261,0-3.152,0.046-5.673,0.139c-2.522,0.094-4.412,0.141-5.673,0.141c-0.275,0-1.004,0.031-2.187,0.095h-3.072
			c-6.617,0-10.065-1.249-10.34-3.742C293.496,198.574,294.934,196.172,298.008,193.489z"/>
	</g>
</g>
</svg>
